<svg width="32" height="32" viewBox="0 0 32 32" fill="none" xmlns="http://www.w3.org/2000/svg">
<rect width="32" height="32" rx="10" fill="black"/>
<path d="M11.2263 21.272C11.2903 21.208 11.3543 21.208 11.4183 21.272C11.8343 21.768 12.4343 22.192 13.2183 22.544C14.0023 22.896 14.8583 23.072 15.7863 23.072C16.9863 23.072 17.9623 22.792 18.7143 22.232C19.4663 21.656 19.8423 20.808 19.8423 19.688C19.8423 18.952 19.6663 18.36 19.3143 17.912C18.9783 17.464 18.4983 17.096 17.8743 16.808C17.2503 16.504 16.5223 16.232 15.6903 15.992C15.2103 15.848 14.6823 15.68 14.1063 15.488C13.5463 15.28 13.0103 15.008 12.4983 14.672C12.0023 14.32 11.6023 13.88 11.2983 13.352C10.9943 12.808 10.8583 12.144 10.8903 11.36C10.9383 10.112 11.4103 9.08 12.3063 8.264C13.2183 7.448 14.4743 7.04 16.0743 7.04C17.2743 7.04 18.2903 7.24 19.1223 7.64C19.9703 8.04 20.5943 8.464 20.9943 8.912C21.0423 8.96 21.0423 9.024 20.9943 9.104L20.2023 10.016C20.1543 10.096 20.0903 10.096 20.0103 10.016C19.6903 9.632 19.1863 9.264 18.4983 8.912C17.8263 8.56 17.0103 8.384 16.0503 8.384C14.9783 8.384 14.1143 8.64 13.4583 9.152C12.8023 9.664 12.4743 10.368 12.4743 11.264C12.4743 12 12.6503 12.584 13.0023 13.016C13.3703 13.432 13.8343 13.752 14.3943 13.976C14.9703 14.2 15.5623 14.4 16.1703 14.576C16.7303 14.736 17.3143 14.936 17.9223 15.176C18.5303 15.4 19.0983 15.696 19.6263 16.064C20.1543 16.432 20.5783 16.912 20.8983 17.504C21.2343 18.08 21.4023 18.8 21.4023 19.664C21.4023 20.688 21.1623 21.56 20.6823 22.28C20.2023 22.984 19.5383 23.52 18.6903 23.888C17.8423 24.256 16.8583 24.44 15.7383 24.44C14.5543 24.44 13.4823 24.24 12.5223 23.84C11.5623 23.44 10.8503 22.944 10.3863 22.352C10.3543 22.304 10.3623 22.24 10.4103 22.16L11.2263 21.272Z" fill="white"/>
</svg>
